#!OML:ASF F:\VICON\USERDATA\INSTALL\rory3\rory3.ASF
:FULLY-SPECIFIED
:DEGREES
312
root 0.394616 16.7628 3.77257 5.56439 -42.2983 9.46561
lowerback -7.66019 1.54715 7.57135
upperback -0.687477 1.5227 -2.9644
thorax 3.86963 0.904869 -7.23767
lowerneck -10.0263 2.99367 -6.02859
upperneck 48.4389 5.72951 -0.789027
head 21.0515 0.584724 1.63072
rclavicle 3.11098e-014 1.82882e-014
rhumerus -13.9002 28.6509 -66.6789
rradius 88.5042
rwrist -29.9378
rhand -6.77374 -47.3348
rfingers 7.12502
rthumb 19.0884 -76.4181
lclavicle 3.11098e-014 1.82882e-014
lhumerus 13.2141 -33.3843 49.7159
lradius 83.8819
lwrist 44.9992
lhand -18.1234 -17.359
lfingers 7.12502
lthumb 8.15123 12.4638
rfemur -11.5541 3.41663 -0.0201849
rtibia 49.8494
rfoot -3.68547 -12.979
rtoes -32.3771
lfemur -33.0919 -13.7091 -30.1185
ltibia 39.5635
lfoot -15.8979 -10.6505
ltoes 20.7025
313
root 0.393605 16.7529 3.76899 5.63498 -42.056 9.50914
lowerback -7.8184 1.51426 7.525
upperback -0.603085 1.46947 -2.94187
thorax 4.0359 0.887584 -7.19115
lowerneck -9.82618 2.93578 -6.41617
upperneck 48.243 5.60029 -0.507116
head 20.8049 0.519685 1.81603
rclavicle 2.05742e-014 -3.18055e-015
rhumerus -14.0295 28.7305 -67.038
rradius 88.0943
rwrist -29.104
rhand -5.44547 -48.6825
rfingers 7.12502
rthumb 20.3653 -77.6346
lclavicle 2.05742e-014 -3.18055e-015
lhumerus 12.4716 -33.5694 50.7963
lradius 83.9778
lwrist 44.3954
lhand -17.2685 -17.5417
lfingers 7.12502
lthumb 8.97623 12.2474
rfemur -11.5974 3.40998 -0.0657018
rtibia 50.0416
rfoot -4.25936 -12.7272
rtoes -31.0485
lfemur -33.2902 -13.91 -30.1333
ltibia 39.7585
lfoot -15.9245 -10.6433
ltoes 20.9013
314
root 0.392336 16.7371 3.75692 5.4871 -41.8636 9.84048
lowerback -7.87126 1.30844 7.15945
upperback -0.711278 1.21871 -2.82168
thorax 3.89498 0.744649 -6.88042
lowerneck -9.23958 3.08815 -7.08642
upperneck 48.0906 5.80374 -0.183707
head 20.4487 0.536789 2.1169
rclavicle -1.89839e-014 -1.59028e-015
rhumerus -14.1115 29.4602 -67.404
rradius 87.5612
rwrist -28.376
rhand -5.30359 -44.723
rfingers 7.12502
rthumb 20.5017 -73.6605
lclavicle -1.89839e-014 -1.59028e-015
lhumerus 11.3043 -33.4011 51.6914
lradius 84.1392
lwrist 44.9421
lhand -15.4375 -17.7327
lfingers 7.12502
lthumb 10.7428 11.9726
rfemur -11.7454 3.38691 -0.329333
rtibia 50.3067
rfoot -4.28881 -12.559
rtoes -31.6377
lfemur -33.4389 -13.9686 -30.4118
ltibia 39.9003
lfoot -16.0265 -10.6741
ltoes 20.2898
315
root 0.3908 16.7285 3.74825 5.39877 -41.7319 9.97115
lowerback -7.7462 1.16051 6.92146
upperback -0.780554 1.04688 -2.72067
thorax 3.71558 0.644354 -6.6555
lowerneck -9.09043 3.18351 -7.2409
upperneck 48.1608 5.99404 -0.227715
head 20.4454 0.572666 2.15085
rclavicle 6.48038e-014 -7.15625e-015
rhumerus -14.1825 30.0094 -67.7859
rradius 87.0145
rwrist -27.6856
rhand -6.61119 -48.8991
rfingers 7.12502
rthumb 19.2447 -77.9669
lclavicle 6.48038e-014 -7.15625e-015
lhumerus 10.2889 -33.4682 52.5814
lradius 84.2063
lwrist 44.8927
lhand -17.3763 -17.2219
lfingers 7.12502
lthumb 8.87223 12.5716
rfemur -11.9057 3.40769 -0.374945
rtibia 50.5845
rfoot -3.86316 -12.6538
rtoes -33.1551
lfemur -33.4968 -13.9918 -30.5183
ltibia 39.9771
lfoot -16.12 -10.7644
ltoes 19.4187
316
root 0.390684 16.7271 3.74705 5.44759 -41.6185 9.92681
lowerback -7.64911 1.05101 6.88752
upperback -0.810148 0.906454 -2.61585
thorax 3.6041 0.567526 -6.54001
lowerneck -9.4965 3.16904 -7.05628
upperneck 48.5573 6.17101 -0.652854
head 20.914 0.57985 1.94906
rclavicle -2.88238e-015 -5.56597e-015
rhumerus -14.19 30.5319 -68.1341
rradius 86.4753
rwrist -27.1617
rhand -6.70942 -46.7848
rfingers 7.12502
rthumb 19.1503 -75.8619
lclavicle -2.88238e-015 -5.56597e-015
lhumerus 9.28818 -33.7095 53.5902
lradius 84.243
lwrist 43.7822
lhand -18.7729 -17.2798
lfingers 7.12502
lthumb 7.52433 12.5663
rfemur -12.0758 3.36677 -0.293577
rtibia 50.8145
rfoot -3.24175 -12.74
rtoes -34.6457
lfemur -33.5362 -14.036 -30.4933
ltibia 40.0207
lfoot -16.1967 -10.7582
ltoes 18.7846
317
root 0.391568 16.723 3.74738 5.38413 -41.5175 10.09
lowerback -7.65469 1.058 6.77959
upperback -0.759489 0.926308 -2.67634
thorax 3.66297 0.580324 -6.54031
lowerneck -9.34297 3.11059 -7.15554
upperneck 48.2921 6.02286 -0.519328
head 20.6529 0.546858 2.00177
rclavicle 4.56211e-014 -3.02153e-014
rhumerus -14.3017 30.6123 -68.5461
rradius 86.0479
rwrist -26.9126
rhand -6.47965 -44.9799
rfingers 7.12502
rthumb 19.3712 -74.035
lclavicle 4.56211e-014 -3.02153e-014
lhumerus 8.84254 -34.0647 54.1768
lradius 84.3452
lwrist 43.3017
lhand -18.6967 -17.3282
lfingers 7.12502
lthumb 7.5979 12.5154
rfemur -12.2339 3.20242 -0.427065
rtibia 50.9926
rfoot -2.53414 -12.6802
rtoes -36.135
lfemur -33.5833 -14.0699 -30.6462
ltibia 40.0801
lfoot -16.1882 -10.7943
ltoes 19.0214
318
root 0.390366 16.7163 3.75368 5.25516 -41.4057 10.3581
lowerback -7.87365 1.15219 6.66427
upperback -0.6126 1.05333 -2.84635
thorax 3.96237 0.659874 -6.64061
lowerneck -9.34361 2.94115 -7.15401
upperneck 48.2466 5.6645 -0.320857
head 20.6189 0.440391 2.04056
rclavicle 1.76918e-014 -8.74653e-015
rhumerus -14.5664 30.3621 -69.0104
rradius 85.7663
rwrist -26.7826
rhand -6.20791 -45.0444
rfingers 7.12502
rthumb 19.6325 -74.073
lclavicle 1.76918e-014 -8.74653e-015
lhumerus 8.90012 -34.3719 54.3537
lradius 84.4795
lwrist 43.9522
lhand -17.8302 -17.3851
lfingers 7.12502
lthumb 8.43422 12.4265
rfemur -12.2831 2.96841 -0.692915
rtibia 51.1367
rfoot -2.32512 -12.5747
rtoes -36.6764
lfemur -33.6418 -14.1779 -30.8781
ltibia 40.1927
lfoot -16.189 -10.911
ltoes 19.482
319
root 0.389135 16.7112 3.7565 5.39502 -41.2198 10.2389
lowerback -8.0566 1.14525 6.76332
upperback -0.535775 1.02215 -2.82258
thorax 4.14221 0.655628 -6.67547
lowerneck -9.24075 2.87635 -7.30114
upperneck 48.2452 5.52775 -0.188719
head 20.5782 0.380366 2.10771
rclavicle 6.94752e-014 -2.06736e-014
rhumerus -14.7795 30.4467 -69.4634
rradius 85.4319
rwrist -26.6964
rhand -5.75856 -44.0925
rfingers 7.12502
rthumb 20.0644 -73.0765
lclavicle 6.94752e-014 -2.06736e-014
lhumerus 8.5408 -34.4604 54.8548
lradius 84.5553
lwrist 44.2743
lhand -16.9259 -18.1087
lfingers 7.12502
lthumb 9.3068 11.6659
rfemur -12.329 2.80047 -0.582248
rtibia 51.3007
rfoot -2.46817 -12.6485
rtoes -36.5084
lfemur -33.7859 -14.3307 -30.7709
ltibia 40.3617
lfoot -16.1344 -11.1133
ltoes 20.2851
